<?xml version="1.0" standalone="no"?>
<!DOCTYPE svg PUBLIC "-//W3C//DTD SVG 20010904//EN"
 "http://www.w3.org/TR/2001/REC-SVG-20010904/DTD/svg10.dtd">
<svg version="1.0" xmlns="http://www.w3.org/2000/svg"
 width="65" height="53" viewBox="0 0 600.000000 480.000000"
 preserveAspectRatio="xMidYMid meet">

<g transform="translate(0.000000,480.000000) scale(0.100000,-0.100000)"
fill="#000000" stroke="none">
<path d="M2785 4664 c-126 -11 -297 -36 -365 -55 -123 -34 -274 -81 -285 -89
-5 -4 -28 -13 -50 -20 -85 -27 -432 -220 -465 -259 -3 -3 -30 -25 -60 -47
-273 -205 -536 -544 -669 -859 -23 -55 -46 -109 -52 -120 -24 -50 -91 -308
-109 -420 -28 -173 -37 -362 -24 -517 16 -187 18 -204 50 -346 30 -136 76
-285 114 -367 15 -33 40 -89 56 -124 31 -68 119 -214 194 -323 116 -168 332
-385 503 -505 156 -110 373 -231 473 -263 21 -7 44 -16 49 -20 6 -4 60 -22
120 -39 61 -18 130 -38 155 -46 103 -30 424 -64 570 -61 101 3 351 31 410 46
123 31 152 40 219 59 468 141 915 478 1192 901 100 152 182 307 205 388 9 32
27 80 40 108 44 94 85 270 110 478 21 174 14 463 -14 636 -19 116 -65 307 -81
338 -5 9 -21 51 -36 92 -31 84 -117 267 -150 320 -134 214 -224 329 -360 465
-259 258 -583 452 -920 553 -182 55 -209 61 -335 77 -126 16 -393 26 -485 19z
m175 -165 c0 -6 -20 -37 -45 -69 -25 -32 -45 -64 -45 -70 0 -7 27 -43 61 -81
33 -38 58 -73 54 -79 -3 -5 -26 -10 -50 -10 -39 0 -47 4 -84 48 -34 39 -42 44
-51 32 -6 -8 -9 -31 -8 -50 3 -34 2 -35 -38 -38 l-41 -3 -11 146 c-6 80 -9
152 -6 160 4 10 20 15 45 15 l38 0 3 -52 3 -53 38 52 c21 28 45 54 55 56 34 9
82 7 82 -4z m185 -7 c6 -4 24 -35 40 -69 17 -35 33 -63 38 -63 4 0 7 21 7 48
0 64 9 75 54 67 20 -4 38 -10 40 -14 1 -3 -3 -44 -10 -90 -6 -46 -15 -112 -19
-147 -6 -61 -8 -64 -33 -64 -38 0 -48 9 -74 65 -52 109 -51 109 -63 30 l-11
-70 -37 1 c-21 1 -39 3 -41 5 -5 4 21 248 29 287 4 17 12 22 38 22 17 0 37 -4
42 -8z m-540 -58 c3 -20 5 -37 3 -38 -2 -1 -25 -8 -53 -14 -56 -15 -59 -17
-51 -30 3 -6 23 -5 51 1 51 12 52 11 65 -32 10 -35 5 -39 -67 -58 -25 -6 -30
-11 -24 -22 8 -12 20 -13 63 -5 l54 10 11 -33 c7 -23 7 -35 -1 -41 -19 -14
-163 -45 -179 -39 -9 3 -20 30 -27 64 -6 32 -18 85 -27 118 -9 33 -16 73 -17
90 -1 29 1 30 74 47 113 24 117 24 125 -18z m893 -9 c5 -5 -67 -288 -76 -297
-7 -7 -82 8 -82 17 0 9 61 235 76 284 3 10 14 11 42 6 20 -4 38 -8 40 -10z
m-1148 -41 c16 -40 12 -51 -20 -63 -16 -5 -30 -12 -30 -15 0 -2 16 -50 36
-106 23 -62 33 -105 28 -110 -5 -5 -23 -12 -40 -16 -30 -6 -31 -5 -57 63 -54
146 -53 143 -88 130 -27 -11 -32 -10 -45 7 -21 29 -17 55 9 66 87 36 174 69
185 69 7 1 17 -11 22 -25z m1289 -5 c35 -12 38 -26 16 -69 -19 -37 -11 -37 49
-4 44 24 48 25 88 12 23 -8 43 -19 45 -25 2 -6 -29 -29 -70 -51 l-74 -41 20
-73 c11 -40 22 -85 24 -100 l5 -26 -46 16 c-43 16 -47 20 -63 75 -10 32 -22
59 -28 60 -5 1 -18 -15 -28 -35 -10 -21 -23 -38 -28 -38 -22 0 -70 32 -66 43
42 108 111 267 117 267 4 0 21 -5 39 -11z m-1664 -300 c69 -50 125 -94 125
-99 0 -5 -16 -18 -35 -30 -34 -21 -37 -21 -55 -5 -19 17 -21 17 -60 -9 -35
-23 -39 -30 -34 -52 5 -21 1 -31 -22 -50 -16 -13 -32 -23 -36 -24 -4 0 -24
-18 -46 -41 l-38 -41 -62 9 c-72 11 -81 -1 -35 -49 l27 -28 -31 -32 -32 -31
-111 114 -111 113 33 28 33 27 33 -32 34 -32 -7 65 c-7 64 -6 66 24 93 17 15
35 27 40 27 5 0 12 -30 16 -67 3 -38 7 -75 8 -83 2 -11 28 -19 100 -29 54 -7
101 -11 104 -8 3 3 -2 34 -10 69 -9 35 -26 103 -38 152 l-22 90 29 23 c16 13
35 23 42 23 6 0 68 -41 137 -91z m2127 64 l30 -18 -7 -77 -6 -77 64 26 65 26
32 -23 c17 -12 29 -28 27 -35 -8 -18 -178 -235 -186 -235 -3 0 -19 11 -36 24
-32 26 -33 25 32 105 l28 34 -25 -8 c-14 -4 -37 -13 -52 -20 -39 -19 -51 -1
-42 67 l7 53 -45 -57 -44 -56 -32 20 c-18 11 -32 24 -32 29 0 11 178 239 187
239 3 0 18 -8 35 -17z m-922 -309 c122 -20 273 -70 389 -129 316 -158 590
-472 707 -808 59 -172 88 -436 65 -602 -6 -44 -16 -117 -21 -162 -10 -77 -40
-174 -90 -288 -27 -60 -97 -182 -121 -210 -9 -11 -23 -32 -30 -47 -8 -14 -48
-63 -88 -108 -214 -233 -477 -380 -801 -446 -119 -25 -371 -25 -500 0 -186 36
-371 111 -526 214 -186 124 -348 295 -451 477 -62 109 -71 127 -94 195 -12 36
-25 70 -29 75 -11 15 -48 172 -60 250 -13 93 -13 272 1 376 49 382 259 735
573 963 316 230 687 316 1076 250z m1302 -41 c15 -15 28 -31 28 -36 0 -8 -145
-273 -157 -287 -3 -3 -17 9 -33 27 -26 29 -28 35 -17 62 10 28 9 33 -18 61
-23 24 -35 30 -54 25 -18 -5 -31 1 -52 21 -16 15 -29 31 -29 35 0 3 42 22 92
40 51 18 118 43 148 56 30 12 57 23 59 23 3 0 18 -12 33 -27z m-3052 -103 c36
-27 88 -67 117 -87 29 -21 52 -45 52 -53 0 -15 -32 -60 -43 -60 -5 0 -122 87
-227 170 -19 15 -19 16 3 47 13 18 25 33 28 32 3 0 34 -22 70 -49z m-132 -97
c15 -9 29 -18 31 -19 2 -2 -11 -26 -28 -53 -17 -28 -29 -51 -27 -51 3 0 11 -3
20 -6 10 -4 21 7 36 35 22 45 38 50 75 25 l25 -16 -25 -42 c-14 -24 -25 -47
-25 -53 0 -5 18 -18 40 -28 23 -10 43 -22 46 -26 3 -5 -6 -24 -18 -43 l-23
-35 -30 18 c-16 10 -76 46 -132 80 l-103 63 16 30 c23 44 84 138 90 138 2 0
17 -8 32 -17z m3361 -35 l20 -33 -39 -73 -40 -73 54 30 c29 17 57 31 62 31 5
0 17 -15 27 -32 22 -38 24 -36 -93 -101 -41 -22 -90 -51 -109 -64 -44 -30 -53
-29 -70 7 -12 29 -10 36 29 111 46 89 46 88 -42 32 -21 -12 -42 -23 -48 -23
-11 0 -47 67 -39 73 12 10 255 147 260 147 4 0 16 -15 28 -32z m-3259 -310 c0
-6 -5 -27 -12 -45 -10 -27 -17 -33 -40 -33 -24 0 -32 -7 -48 -42 -18 -43 -18
-43 2 -61 19 -16 20 -21 8 -57 -7 -22 -18 -40 -23 -40 -5 0 -53 39 -106 87
-161 145 -145 124 -125 166 l18 37 163 0 c118 0 163 -3 163 -12z m3444 -71
c33 -94 32 -137 -4 -187 -26 -37 -88 -70 -131 -70 -42 0 -106 37 -129 75 -22
36 -62 156 -55 164 5 4 271 98 285 100 3 1 18 -37 34 -82z m-3709 -236 l29
-28 58 18 c32 9 60 14 62 10 5 -7 -9 -80 -16 -85 -1 -2 -27 -11 -56 -21 -52
-17 -65 -37 -26 -43 57 -9 64 -13 64 -38 0 -14 -4 -33 -9 -43 -9 -16 -19 -15
-152 11 -79 15 -146 31 -150 35 -9 10 13 130 29 160 19 34 53 53 98 53 31 0
47 -6 69 -29z m3798 -88 c4 -20 5 -39 2 -41 -9 -9 -295 -65 -301 -59 -2 2 -6
22 -10 45 -5 32 -3 42 7 42 8 0 70 11 139 24 165 32 156 33 163 -11z m29 -211
c9 -85 -5 -130 -46 -157 -33 -22 -87 -22 -120 0 -25 17 -27 16 -76 -15 -28
-18 -52 -31 -54 -29 -4 4 -9 65 -7 86 1 6 22 23 47 38 56 33 53 51 -9 47 -46
-4 -46 -4 -53 33 -3 20 -3 39 1 43 6 6 261 31 295 28 11 -1 17 -20 22 -74z
m-3840 -2 c44 -13 103 -77 112 -122 15 -77 -43 -164 -126 -187 -38 -11 -50
-10 -84 4 -103 43 -142 141 -91 230 27 47 51 51 80 13 19 -26 20 -29 4 -46
-52 -57 24 -149 93 -112 23 12 40 62 32 92 -6 20 -7 19 -12 -12 -4 -31 -8 -35
-38 -36 -17 -1 -35 4 -40 10 -4 6 -6 48 -4 94 4 91 4 91 74 72z m3755 -236
c46 -3 86 -10 89 -16 3 -5 3 -25 -1 -44 l-6 -35 -92 6 c-51 3 -120 8 -154 11
l-63 6 0 37 c0 21 2 40 5 43 6 5 42 4 222 -8z m-3551 -591 c42 -106 46 -111
94 -117 88 -11 125 -21 127 -36 2 -8 -24 -37 -58 -65 l-61 -50 7 -50 c3 -27
10 -54 16 -59 5 -6 9 -23 9 -38 0 -45 -26 -46 -102 -5 -73 40 -76 40 -147 -5
-25 -15 -55 -28 -67 -28 -26 0 -38 24 -25 49 5 9 13 44 16 77 l7 60 -60 53
c-84 72 -81 76 75 97 48 7 56 14 73 69 29 93 70 113 96 48z m3287 -37 c34 -72
35 -73 78 -79 149 -22 157 -33 70 -103 -60 -49 -70 -69 -51 -104 5 -10 13 -43
16 -74 7 -54 6 -56 -17 -56 -13 0 -37 9 -54 20 -16 12 -45 27 -64 36 -33 14
-36 13 -97 -21 -102 -57 -115 -48 -90 67 l16 73 -61 56 c-34 32 -59 63 -57 70
4 13 99 37 150 38 18 1 29 8 33 22 4 11 18 45 32 75 35 77 54 73 96 -20z
m-2578 -772 l34 -25 -75 -105 c-79 -109 -110 -134 -167 -134 -49 0 -113 49
-126 96 -14 49 -2 63 46 55 29 -5 38 -12 43 -31 4 -17 14 -26 30 -28 21 -2 36
13 95 97 39 55 74 100 78 101 5 0 24 -12 42 -26z m1912 -120 c64 -53 125 -101
135 -107 27 -17 22 -33 -18 -56 -33 -20 -37 -20 -63 -5 -26 15 -30 15 -69 -5
-37 -19 -42 -25 -42 -56 0 -29 -6 -39 -32 -55 -47 -29 -55 -25 -63 28 -4 26
-18 102 -31 169 -13 68 -24 127 -24 132 0 11 59 49 78 50 8 1 66 -42 129 -95z
m-1687 -2 c29 -14 35 -23 34 -47 -2 -65 -26 -330 -30 -334 -3 -3 -25 5 -50 18
-42 20 -46 24 -41 51 6 26 2 30 -38 49 -55 26 -60 26 -79 0 -14 -21 -15 -21
-55 -3 -23 10 -41 23 -41 28 0 14 242 256 255 256 5 -1 26 -9 45 -18z m1418
-25 c17 -48 16 -52 -23 -66 -19 -7 -35 -16 -35 -20 0 -5 9 -28 19 -52 11 -24
31 -74 45 -111 l25 -68 -29 -15 c-56 -29 -62 -24 -106 98 -27 72 -47 111 -55
110 -8 0 -28 -4 -44 -8 -28 -6 -31 -4 -44 30 -7 20 -10 39 -6 43 8 8 216 91
230 92 6 0 16 -15 23 -33z m-1153 -95 c-3 -14 -9 -38 -12 -55 l-6 -31 60 47
60 46 44 -13 c24 -7 44 -18 44 -24 0 -5 -29 -33 -65 -62 -36 -28 -66 -53 -68
-55 -4 -4 68 -168 79 -179 15 -16 10 -36 -8 -36 -10 0 -35 5 -56 11 -33 9 -41
17 -67 76 -26 56 -32 64 -45 53 -8 -7 -18 -30 -21 -51 -6 -36 -9 -39 -38 -39
-18 0 -40 6 -49 13 -16 11 -17 17 -3 72 8 33 24 105 37 160 13 55 27 103 32
106 4 3 26 1 48 -5 35 -9 39 -13 34 -34z m836 -13 c54 -38 75 -112 44 -153
-21 -27 -20 -29 25 -82 23 -25 39 -51 37 -57 -2 -7 -23 -15 -47 -19 -46 -8
-53 -4 -117 81 -20 27 -32 1 -23 -49 5 -25 5 -49 0 -53 -4 -5 -25 -11 -47 -14
l-40 -5 -17 88 c-54 274 -54 263 4 265 14 0 34 4 45 9 38 16 105 11 136 -11z
m-380 -31 c7 -13 20 -48 30 -78 10 -30 33 -97 53 -149 19 -52 33 -98 30 -103
-6 -10 -75 -10 -90 0 -7 4 -13 16 -15 27 -4 17 -13 20 -62 23 -53 3 -58 1 -67
-22 -8 -23 -15 -26 -60 -26 -27 0 -50 1 -50 3 0 3 19 54 75 202 21 55 41 110
46 123 7 18 16 22 53 22 37 0 48 -4 57 -22z"/>
<path d="M1880 4033 c1 -20 20 -37 29 -28 7 7 4 14 -9 23 -11 7 -20 9 -20 5z"/>
<path d="M2750 3569 c-221 -28 -461 -144 -627 -302 -236 -224 -355 -503 -355
-832 -1 -162 20 -273 77 -421 204 -527 785 -827 1336 -688 194 49 350 132 489
260 166 152 254 287 323 494 35 106 47 169 54 290 19 330 -100 643 -332 875
-253 252 -605 371 -965 324z m-234 -830 c24 -6 44 -14 44 -18 -1 -3 -7 -31
-14 -61 -14 -61 -12 -60 -101 -40 -64 14 -136 4 -177 -24 -80 -53 -107 -180
-59 -278 30 -62 74 -89 157 -96 l64 -5 0 67 0 66 -45 0 -46 0 3 63 c2 34 6 61
11 60 4 -2 57 -3 117 -3 l110 0 -2 -172 -3 -173 -80 -18 c-204 -45 -371 15
-442 161 -23 49 -27 69 -28 147 0 74 4 99 23 139 46 96 101 147 200 182 46 16
208 18 268 3z m602 -61 l-3 -63 -82 -3 -83 -3 0 -249 0 -250 -75 0 -75 0 0
250 0 250 -85 0 -85 0 0 65 0 65 245 0 246 0 -3 -62z m315 -13 c46 -173 69
-263 76 -295 7 -33 7 -33 13 -10 9 35 53 193 77 271 33 113 28 109 136 109 90
0 95 -1 99 -22 5 -25 27 -495 26 -565 l0 -43 -75 0 c-65 0 -75 2 -75 18 0 57
-13 407 -15 410 -1 1 -12 -37 -25 -85 -12 -49 -26 -92 -30 -98 -4 -5 -15 -41
-25 -79 -10 -38 -25 -90 -34 -115 l-17 -46 -59 0 -60 0 -28 105 c-16 58 -40
152 -55 210 l-27 105 -8 -200 c-4 -110 -10 -206 -12 -212 -3 -9 -27 -13 -75
-13 l-72 0 6 88 c4 48 11 166 16 262 6 96 13 199 16 228 l6 53 101 -3 101 -3
19 -70z"/>
<path d="M4358 3692 c-10 -2 -18 -8 -18 -13 0 -13 27 -11 35 2 9 13 4 16 -17
11z"/>
<path d="M1196 3159 c13 -15 19 -17 26 -7 12 20 10 23 -18 24 -24 2 -25 1 -8
-17z"/>
<path d="M4693 3128 c-35 -12 -63 -25 -63 -30 0 -5 6 -24 14 -43 24 -57 110
-60 130 -4 9 27 0 100 -12 98 -4 0 -35 -10 -69 -21z"/>
<path d="M1040 2864 c-15 -38 -13 -44 15 -44 18 0 26 7 31 24 12 48 -29 66
-46 20z"/>
<path d="M4832 2588 c2 -25 8 -33 23 -33 15 0 21 8 23 33 3 29 1 32 -23 32
-24 0 -26 -3 -23 -32z"/>
<path d="M3860 805 c0 -27 12 -32 28 -12 8 10 6 16 -9 25 -17 11 -19 9 -19
-13z"/>
<path d="M2166 731 c-17 -19 -17 -21 -2 -27 22 -8 28 -1 24 26 l-3 22 -19 -21z"/>
<path d="M3263 673 c-25 -5 -26 -7 -17 -41 6 -19 11 -22 33 -17 35 8 54 34 40
52 -12 13 -16 14 -56 6z"/>
<path d="M2916 564 c-9 -22 -8 -24 9 -24 8 0 15 6 15 14 0 22 -17 28 -24 10z"/>
</g>
</svg>
